<svg xmlns="http://www.w3.org/2000/svg" width="500" viewBox="0 0 375 375" height="500" version="1.0"><defs><clipPath id="a"><path d="M81.621 61.246H293v235.5H81.621Zm0 0"/></clipPath><clipPath id="b"><path d="M81.621 61.246h211.5v235.5h-211.5Zm0 0"/></clipPath></defs><g clip-path="url(#a)"><path fill="#fff" d="M290.953 94.176 187.32 61.969 83.688 94.176S58.472 255.73 187.32 296.023C316.121 255.73 290.953 94.176 290.953 94.176Zm0 0"/></g><g clip-path="url(#b)"><path fill="#fff" d="m187.32 296.54-.14-.048c-29.496-9.215-53.297-25.62-70.797-48.707-13.973-18.48-23.945-41.234-29.684-67.707-5.082-23.508-5.738-45.652-5.457-60.039.328-15.613 1.93-25.863 1.93-25.957l.047-.328 104.101-32.3L291.375 93.8l.047.328c0 .094 1.601 10.297 1.93 25.957.328 14.434-.375 36.531-5.457 60.039-5.692 26.426-15.711 49.227-29.684 67.707-17.5 23.086-41.3 39.492-70.797 48.707ZM84.16 94.554c-.285 1.832-1.555 11.472-1.883 25.53-.328 14.388.375 36.392 5.41 59.806 5.692 26.328 15.618 48.945 29.497 67.28 17.308 22.9 40.925 39.122 70.136 48.29 29.211-9.168 52.782-25.39 70.137-48.29 13.879-18.335 23.805-41 29.496-67.28 5.035-23.414 5.738-45.465 5.41-59.805-.328-14.059-1.597-23.7-1.883-25.531L187.32 62.488Zm0 0"/></g><path d="M175.468 99.81c-20.32 0-31.465 10.926-31.465 31.466v51.57c0 4.148 1.965 6.773 5.899 8.082l51.789 17.047v29.058c0 5.903-3.059 8.743-8.742 8.743H182.46c-5.46 0-8.738-2.84-8.738-8.743V220.21c0-2.402-1.094-3.496-3.496-3.496h-22.727c-2.183 0-3.496 1.094-3.496 3.496v22.945c0 20.54 11.145 31.465 31.465 31.465h24.473c20.543 0 31.469-10.926 31.469-31.465v-50.476c0-4.152-1.97-6.555-5.684-8.086l-52.004-17.043v-30.156c0-5.68 3.277-8.739 8.738-8.739h10.489c5.902 0 8.742 3.059 8.742 8.739v17.043c0 2.187 1.312 3.496 3.496 3.496h22.726c2.403 0 3.497-1.309 3.497-3.496v-23.16c0-20.54-10.926-31.465-31.47-31.465Zm0 0" fill="#ffd663"/></svg>